<?xml version="1.0" standalone="no"?>
<!DOCTYPE svg PUBLIC "-//W3C//DTD SVG 20010904//EN"
 "http://www.w3.org/TR/2001/REC-SVG-20010904/DTD/svg10.dtd">
<svg version="1.0" xmlns="http://www.w3.org/2000/svg"
 width="270.000000pt" height="270.000000pt" viewBox="0 0 270.000000 270.000000"
 preserveAspectRatio="xMidYMid meet">
<metadata>
Created by potrace 1.14, written by Peter Selinger 2001-2017
</metadata>
<g transform="translate(0.000000,270.000000) scale(0.100000,-0.100000)"
fill="#000000" stroke="none">
<path d="M1200 2029 c-85 -60 -163 -114 -173 -121 -11 -7 -42 -30 -70 -50 -28
-21 -54 -38 -59 -38 -4 0 -8 -108 -8 -239 l0 -239 108 -76 c59 -41 114 -80
122 -86 8 -6 62 -44 120 -85 57 -41 110 -75 117 -75 11 0 96 56 148 97 6 4 30
21 55 38 25 16 47 32 50 36 3 3 41 30 85 60 44 30 91 64 105 76 l25 22 -1 223
c-1 123 -2 228 -3 234 0 6 -27 28 -58 50 -65 44 -223 154 -238 167 -28 22
-133 95 -150 104 -18 10 -42 -4 -175 -98z m115 -184 c-1 -85 -3 -157 -7 -160
-3 -3 -36 32 -73 79 -68 85 -74 90 -107 87 -10 -1 -18 1 -18 6 1 8 189 143
200 143 3 0 5 -70 5 -155z m250 45 c72 -50 130 -95 130 -100 0 -9 -64 -60 -75
-60 -4 0 -6 21 -5 48 1 26 -2 54 -6 63 -12 24 -69 17 -92 -12 -131 -164 -117
-166 -117 15 0 146 1 156 18 147 9 -5 76 -51 147 -101z m-479 -95 c0 -51 -14
-58 -55 -26 l-23 18 33 26 c19 15 36 27 39 27 3 0 5 -20 6 -45z m149 -164 c-3
-3 -9 -1 -13 5 -4 5 -19 17 -34 26 -23 15 -26 24 -19 56 1 2 17 -15 36 -38 20
-24 33 -45 30 -49z m273 17 c-46 -35 -52 -15 -10 38 l27 34 3 -27 c3 -19 -3
-32 -20 -45z m-487 26 c19 -14 41 -29 49 -34 10 -6 15 -25 15 -62 0 -52 0 -53
-50 -90 -27 -20 -52 -34 -55 -31 -7 6 -7 243 0 243 4 0 22 -12 41 -26z m719
-99 l0 -125 -27 17 c-83 51 -99 70 -98 112 1 37 5 44 55 80 30 22 58 40 63 40
4 1 7 -55 7 -124z m-461 -84 l36 -29 -1 -148 c-1 -82 -2 -153 -3 -157 -1 -9
-94 52 -99 66 -2 4 -10 7 -18 7 -8 0 -14 4 -14 8 0 5 -11 15 -25 22 -14 7 -25
17 -25 22 0 5 4 7 9 4 19 -12 31 23 30 85 -2 106 -1 113 29 131 37 22 39 22
81 -11z m236 9 c16 -17 18 -36 17 -115 -1 -97 -1 -98 40 -98 26 0 15 -11 -63
-64 -39 -26 -79 -54 -89 -61 -19 -14 -19 -9 -18 146 l0 160 37 26 c43 31 52
32 76 6z m164 -117 c25 -22 25 -23 6 -37 -11 -8 -31 -21 -45 -29 l-25 -15 -1
63 c0 60 1 62 20 51 11 -6 31 -21 45 -33z m-593 -22 c-1 -46 -2 -48 -21 -39
-11 6 -28 18 -38 26 -17 15 -16 17 10 38 41 34 49 30 49 -25z"/>
</g>
</svg>
